# xmcd CD database file
#
# Track frame offsets:
#	150
#	11817
#	25725
#	36730
#	47985
#	62622
#	75962
#	89325
#	102772
#	117512
#	129180
#	143575
#	157585
#	172782
#	184520
#	198355
#	212577
#	225822
#	240942
#	255035
#	266462
#	279402
#	293842
#	309065
#	323745
#
# Disc length: 4449 seconds
#
# Revision: 6
# Processed by: cddbd v1.5.2PL0 Copyright (c) Steve Scherf et al.
# Submitted via: CDex 1.77
#
DISCID=2d115f19
DTITLE=CD 14 - New Orleans - Les Triomphes Du Jazz
DYEAR=2000
DGENRE=Jazz
TTITLE0=Dixie Jazz Band One Step - Original Dixieland Jazz Band
TTITLE1=Tiger Rag - Original Dixieland Jazz Band
TTITLE2=Canal Street Blues - King Oliver's Creole Jazz Band
TTITLE3=Dipper Mouth Blues - King Oliver's Creole Jazz Band
TTITLE4=Snake Rag - King Oliver's Creole Jazz Band
TTITLE5=Tin Roof Blues - New Orleans Rhythm Kings
TTITLE6=Play That Thing - Ollie Power's Harmony Syncopators
TTITLE7=Kansas City Man Blues - Clarence Williams' Blue Five
TTITLE8=Texas Moaner - Clarence Williams' Blue Five
TTITLE9=Black Rag - Original Tuxedo Jazz Orchestra
TTITLE10=Black Bottom Stomp - Jelly Roll Morton's Red Hot Peppers
TTITLE11=The Chant - Jelly Roll Morton's Red Hot Peppers
TTITLE12=Doctor Jazz - Jelly Roll Morton's Red Hot Peppers
TTITLE13=Salty Dog - Freddy Keppard's Jazz Cardinals
TTITLE14=Gatemouth - New Orleans Wanderers
TTITLE15=Bucktown Stomp - Johnny Dodds Washboard Band
TTITLE16=Bogalusa Strut - Sam Morgan's Jazz Band
TTITLE17=Franklin Street Blues - Louis Dumaine's Jazzola Eight
TTITLE18=Apex Blues - Jimmie Noone and His Orchestra
TTITLE19=Astoria Strut - Jones and Collins Astoria Hot Eight
TTITLE20=Sweetie Dear - New Orleans Feetwarmers
TTITLE21=Canal Street Blues - Richard M.Jones' Jazzmen
TTITLE22=High Society - Bunk Johnson's Band
TTITLE23=Tiger Rag - Kid Ory and His Creole Jazz Band
TTITLE24=When The Saints Go Marching In - Louis Armstrong
EXTD=YEAR: 2000
EXTT0=
EXTT1=
EXTT2=
EXTT3=
EXTT4=
EXTT5=
EXTT6=
EXTT7=
EXTT8=
EXTT9=
EXTT10=
EXTT11=
EXTT12=
EXTT13=
EXTT14=
EXTT15=
EXTT16=
EXTT17=
EXTT18=
EXTT19=
EXTT20=
EXTT21=
EXTT22=
EXTT23=
EXTT24=
PLAYORDER=
